<?xml version="1.0" ?><svg xmlns:dc="http://purl.org/dc/elements/1.1/" xmlns:cc="http://creativecommons.org/ns#" xmlns:rdf="http://www.w3.org/1999/02/22-rdf-syntax-ns#" xmlns:svg="http://www.w3.org/2000/svg" xmlns="http://www.w3.org/2000/svg" xmlns:sodipodi="http://sodipodi.sourceforge.net/DTD/sodipodi-0.dtd" xmlns:inkscape="http://www.inkscape.org/namespaces/inkscape" width="4.2333331mm" height="4.2333331mm" viewBox="0 0 4.2333331 4.2333331" version="1.1" id="svg839"><defs id="defs833"/><g id="layer1" transform="translate(73.404884,-1.9651226)"><g id="g1564"><g id="g2161" transform="translate(0.04559286)"><g id="g2179" transform="translate(0,-0.00696941)"><g id="g2278"><g id="g2834" transform="translate(-0.1405508)"><g id="g2539" transform="translate(-92.518959,-0.32118853)"><g id="g2888" transform="translate(-0.264574)"><g id="g3038"><g id="g4157"><g id="g4215"><g id="g19701" transform="translate(0,6.1994001e-5)"><path id="rect11541-7" style="fill:none;stroke:#000000;stroke-width:0.999999;stroke-linecap:round;stroke-linejoin:round;paint-order:markers fill stroke" d="m 3.71875,5.2578125 c -1.7187628,0 -1.7181247,2.140625 -0.089844,2.140625 1.8213036,0 2.4433601,1.3059125 2.1933594,2.4863285 L 5.2832031,13.226562 C 4.9283811,14.550718 6.8009098,15.034388 7.28125,13.757812 7.5179996,13.003888 8,11.162693 8,10.8125 c 0,0.350193 0.4820004,2.191388 0.71875,2.945312 0.4803402,1.276576 2.352869,0.792906 1.998047,-0.53125 L 10.177734,9.884766 c -0.2500003,-1.180416 0.09081,-2.4863285 2.19336,-2.4863285 1.628281,0 1.628919,-2.140625 -0.08984,-2.140625 H 8 Z" transform="matrix(0.26458333,0,0,0.26458333,19.473607,2.2932805)"/><path id="path11547-9" style="fill:none;stroke:#000000;stroke-width:0.264583;stroke-linecap:round;stroke-linejoin:round;paint-order:markers fill stroke" d="m 21.590269,3.5087103 a 0.40927741,0.40927741 0 0 1 -0.409277,-0.409278 0.40927741,0.40927741 0 0 1 0.409277,-0.409277 0.40927741,0.40927741 0 0 1 0.409278,0.409277 0.40927741,0.40927741 0 0 1 -0.409278,0.409278 z"/></g></g></g></g></g></g></g></g></g></g></g></g></svg>